<svg width="20" height="20" viewBox="0 0 20 20" fill="none" xmlns="http://www.w3.org/2000/svg">
<path d="M12.9422 15.8072C13.0003 15.8653 13.0463 15.9342 13.0777 16.0101C13.1092 16.0859 13.1254 16.1672 13.1254 16.2494C13.1254 16.3315 13.1092 16.4128 13.0777 16.4887C13.0463 16.5646 13.0003 16.6335 12.9422 16.6916C12.8841 16.7496 12.8152 16.7957 12.7393 16.8271C12.6634 16.8585 12.5821 16.8747 12.5 16.8747C12.4179 16.8747 12.3366 16.8585 12.2607 16.8271C12.1848 16.7957 12.1159 16.7496 12.0578 16.6916L5.80782 10.4416C5.74971 10.3835 5.70361 10.3146 5.67215 10.2387C5.6407 10.1628 5.62451 10.0815 5.62451 9.99937C5.62451 9.91724 5.6407 9.83591 5.67215 9.76003C5.70361 9.68416 5.74971 9.61523 5.80782 9.55718L12.0578 3.30718C12.1751 3.18991 12.3342 3.12402 12.5 3.12402C12.6659 3.12402 12.8249 3.18991 12.9422 3.30718C13.0595 3.42446 13.1254 3.58352 13.1254 3.74937C13.1254 3.91522 13.0595 4.07428 12.9422 4.19156L7.1336 9.99937L12.9422 15.8072Z" fill="white"/>
</svg>
