<svg width="20" height="20" viewBox="0 0 20 20" fill="none" xmlns="http://www.w3.org/2000/svg">
<path d="M14.192 10.4416L7.94205 16.6916C7.88398 16.7496 7.81504 16.7957 7.73917 16.8271C7.6633 16.8585 7.58198 16.8747 7.49986 16.8747C7.41774 16.8747 7.33642 16.8585 7.26055 16.8271C7.18468 16.7957 7.11574 16.7496 7.05767 16.6916C6.9996 16.6335 6.95354 16.5646 6.92211 16.4887C6.89069 16.4128 6.87451 16.3315 6.87451 16.2494C6.87451 16.1672 6.89069 16.0859 6.92211 16.0101C6.95354 15.9342 6.9996 15.8653 7.05767 15.8072L12.8663 9.99937L7.05767 4.19156C6.9404 4.07428 6.87451 3.91522 6.87451 3.74937C6.87451 3.58352 6.9404 3.42446 7.05767 3.30718C7.17495 3.18991 7.33401 3.12402 7.49986 3.12402C7.66571 3.12402 7.82477 3.18991 7.94205 3.30718L14.192 9.55718C14.2502 9.61523 14.2963 9.68416 14.3277 9.76003C14.3592 9.83591 14.3753 9.91724 14.3753 9.99937C14.3753 10.0815 14.3592 10.1628 14.3277 10.2387C14.2963 10.3146 14.2502 10.3835 14.192 10.4416Z" fill="white"/>
</svg>
