<svg width="20" height="20" viewBox="0 0 20 20" fill="none" xmlns="http://www.w3.org/2000/svg">
<path d="M6.875 11.875V15.625C6.875 15.7908 6.80915 15.9497 6.69194 16.0669C6.57473 16.1842 6.41576 16.25 6.25 16.25C6.08424 16.25 5.92527 16.1842 5.80806 16.0669C5.69085 15.9497 5.625 15.7908 5.625 15.625V11.875C5.625 11.7092 5.69085 11.5503 5.80806 11.4331C5.92527 11.3158 6.08424 11.25 6.25 11.25C6.41576 11.25 6.57473 11.3158 6.69194 11.4331C6.80915 11.5503 6.875 11.7092 6.875 11.875ZM3.125 14.375C2.95924 14.375 2.80027 14.4408 2.68306 14.5581C2.56585 14.6753 2.5 14.8342 2.5 15V15.625C2.5 15.7908 2.56585 15.9497 2.68306 16.0669C2.80027 16.1842 2.95924 16.25 3.125 16.25C3.29076 16.25 3.44973 16.1842 3.56694 16.0669C3.68415 15.9497 3.75 15.7908 3.75 15.625V15C3.75 14.8342 3.68415 14.6753 3.56694 14.5581C3.44973 14.4408 3.29076 14.375 3.125 14.375Z" fill="#5C5F61"/>
</svg>
