<svg width="20" height="20" viewBox="0 0 20 20" fill="none" xmlns="http://www.w3.org/2000/svg">
<path d="M17.5 3.75H2.5C2.16848 3.75 1.85054 3.8817 1.61612 4.11612C1.3817 4.35054 1.25 4.66848 1.25 5V15C1.25 15.3315 1.3817 15.6495 1.61612 15.8839C1.85054 16.1183 2.16848 16.25 2.5 16.25H17.5C17.8315 16.25 18.1495 16.1183 18.3839 15.8839C18.6183 15.6495 18.75 15.3315 18.75 15V5C18.75 4.66848 18.6183 4.35054 18.3839 4.11612C18.1495 3.8817 17.8315 3.75 17.5 3.75ZM17.5 12.5H16.875C16.212 12.5 15.5761 12.2366 15.1072 11.7678C14.6384 11.2989 14.375 10.663 14.375 10C14.375 9.33696 14.6384 8.70107 15.1072 8.23223C15.5761 7.76339 16.212 7.5 16.875 7.5H17.5V12.5ZM2.5 7.5H3.125C3.78804 7.5 4.42393 7.76339 4.89277 8.23223C5.36161 8.70107 5.625 9.33696 5.625 10C5.625 10.663 5.36161 11.2989 4.89277 11.7678C4.42393 12.2366 3.78804 12.5 3.125 12.5H2.5V7.5ZM2.5 13.75H3.125C4.11956 13.75 5.07339 13.3549 5.77665 12.6517C6.47991 11.9484 6.875 10.9946 6.875 10C6.875 9.00544 6.47991 8.05161 5.77665 7.34835C5.07339 6.64509 4.11956 6.25 3.125 6.25H2.5V5H9.375V15H2.5V13.75ZM17.5 15H10.625V5H17.5V6.25H16.875C15.8804 6.25 14.9266 6.64509 14.2233 7.34835C13.5201 8.05161 13.125 9.00544 13.125 10C13.125 10.9946 13.5201 11.9484 14.2233 12.6517C14.9266 13.3549 15.8804 13.75 16.875 13.75H17.5V15Z" fill="white"/>
</svg>
