<svg width="21" height="21" viewBox="0 0 21 21" fill="none" xmlns="http://www.w3.org/2000/svg">
<path d="M19.3 10.7031C19.3 10.0531 19.2417 9.42813 19.1333 8.82812H10.5V12.3781H15.4333C15.2167 13.5198 14.5667 14.4865 13.5917 15.1365V17.4448H16.5667C18.3 15.8448 19.3 13.4948 19.3 10.7031Z" fill="#4285F4"/>
<path d="M10.4997 19.6667C12.9747 19.6667 15.0497 18.85 16.5664 17.45L13.5914 15.1417C12.7747 15.6917 11.7331 16.025 10.4997 16.025C8.11641 16.025 6.09141 14.4167 5.36641 12.25H2.31641V14.6167C3.82474 17.6083 6.91641 19.6667 10.4997 19.6667Z" fill="#34A853"/>
<path d="M5.36927 12.2406C5.18594 11.6906 5.0776 11.1073 5.0776 10.499C5.0776 9.89062 5.18594 9.30729 5.36927 8.75729V6.39062H2.31927C1.69427 7.62396 1.33594 9.01562 1.33594 10.499C1.33594 11.9823 1.69427 13.374 2.31927 14.6073L4.69427 12.7573L5.36927 12.2406Z" fill="#FBBC05"/>
<path d="M10.4997 4.97813C11.8497 4.97813 13.0497 5.44479 14.0081 6.34479L16.6331 3.71979C15.0414 2.23646 12.9747 1.32812 10.4997 1.32812C6.91641 1.32812 3.82474 3.38646 2.31641 6.38646L5.36641 8.75313C6.09141 6.58646 8.11641 4.97813 10.4997 4.97813Z" fill="#EA4335"/>
</svg>
