<svg width="21" height="20" viewBox="0 0 21 20" fill="none" xmlns="http://www.w3.org/2000/svg">
<path d="M18.4689 2.03523C16.2814 -0.146799 12.3385 0.246951 9.67208 2.91414C7.18848 5.39773 6.67754 8.98992 8.38223 11.2337L6.07286 13.543L6.01973 13.4899C5.90364 13.3737 5.76578 13.2815 5.61403 13.2186C5.46229 13.1557 5.29963 13.1233 5.13536 13.1233C4.97109 13.1233 4.80843 13.1557 4.65668 13.2186C4.50493 13.2815 4.36707 13.3737 4.25098 13.4899L2.11661 15.6251C2.00039 15.7412 1.90819 15.879 1.84528 16.0308C1.78238 16.1825 1.75 16.3452 1.75 16.5094C1.75 16.6737 1.78238 16.8364 1.84528 16.9881C1.90819 17.1399 2.00039 17.2777 2.11661 17.3938L3.10801 18.3852C3.22409 18.5013 3.3619 18.5934 3.51358 18.6563C3.66525 18.7191 3.82782 18.7514 3.992 18.7514C4.15617 18.7514 4.31874 18.7191 4.47042 18.6563C4.62209 18.5934 4.75991 18.5013 4.87598 18.3852L7.01114 16.2501C7.12724 16.134 7.21934 15.9962 7.28218 15.8445C7.34501 15.6928 7.37736 15.5303 7.37736 15.3661C7.37736 15.2019 7.34501 15.0393 7.28218 14.8877C7.21934 14.736 7.12724 14.5982 7.01114 14.4821L6.95723 14.4282L9.26661 12.1188C10.1486 12.7891 11.2385 13.118 12.3916 13.118C14.1666 13.118 16.083 12.3368 17.59 10.829C20.2525 8.16179 20.6471 4.21883 18.4689 2.03523ZM3.99239 17.5001L3.0002 16.5087L5.13536 14.3751L5.62989 14.8704L6.1252 15.3649L3.99239 17.5001ZM18.0182 8.12507H16.1299V5.62508H18.6299C18.6207 6.49433 18.4113 7.34977 18.0182 8.12507ZM11.1252 11.6884C10.5783 11.5244 10.0806 11.2272 9.67686 10.8234C9.27311 10.4197 8.97591 9.92201 8.81192 9.37507H11.1252V11.6884ZM8.6252 8.12507C8.63456 7.25556 8.84471 6.39997 9.23926 5.62508H11.1252V8.12507H8.6252ZM12.3752 5.62508H14.8752V8.12507H12.3752V5.62508ZM18.4432 4.37508H16.1299V2.0532C16.6777 2.2175 17.1762 2.51521 17.5806 2.91964C17.9851 3.32406 18.2828 3.82255 18.4471 4.37039L18.4432 4.37508ZM14.8635 1.87508H14.876V4.37508H12.376V2.48133C13.1485 2.08867 14.0009 1.87858 14.8674 1.86726L14.8635 1.87508ZM11.1252 3.28601V4.37039H10.044C10.2042 4.17054 10.3753 3.97963 10.5564 3.79851C10.7369 3.61782 10.9268 3.44675 11.1252 3.28601ZM12.3752 11.8735V9.37507H14.8752V11.2626C14.1013 11.656 13.2472 11.8656 12.3791 11.8751L12.3752 11.8735ZM16.1252 10.4563V9.37507H17.2189C17.0585 9.57473 16.8874 9.76563 16.7064 9.94695C16.5237 10.1272 16.3313 10.2972 16.1299 10.4563H16.1252Z" fill="white"/>
</svg>
