<svg width="20" height="21" viewBox="0 0 20 21" fill="none" xmlns="http://www.w3.org/2000/svg">
<path d="M16.25 4.57447C15.3986 4.57446 14.5547 4.73344 13.7617 5.04322C12.643 2.72291 10.3828 1.56978 10.2797 1.51822C10.1929 1.47477 10.0971 1.45215 10 1.45215C9.9029 1.45215 9.80714 1.47477 9.72031 1.51822C9.61641 1.56978 7.35703 2.72291 6.23828 5.04322C5.44527 4.73344 4.60138 4.57446 3.75 4.57447C3.58424 4.57447 3.42527 4.64032 3.30806 4.75753C3.19085 4.87474 3.125 5.03371 3.125 5.19947V11.4495C3.125 13.2728 3.84933 15.0215 5.13864 16.3108C6.42795 17.6001 8.17664 18.3245 10 18.3245C11.8234 18.3245 13.572 17.6001 14.8614 16.3108C16.1507 15.0215 16.875 13.2728 16.875 11.4495V5.19947C16.875 5.03371 16.8092 4.87474 16.6919 4.75753C16.5747 4.64032 16.4158 4.57447 16.25 4.57447ZM9.375 17.0401C8.00054 16.8847 6.73131 16.229 5.80921 15.198C4.8871 14.167 4.3766 12.8327 4.375 11.4495V10.2338C5.74946 10.3892 7.01869 11.0449 7.94079 12.076C8.8629 13.107 9.3734 14.4413 9.375 15.8245V17.0401ZM9.375 11.876C8.80183 11.0591 8.05768 10.3767 7.19424 9.87634C6.33081 9.37595 5.36878 9.06953 4.375 8.97838V5.85885C5.74946 6.01424 7.01869 6.66993 7.94079 7.70096C8.8629 8.73199 9.3734 10.0663 9.375 11.4495V11.876ZM7.35547 5.59869C8.07578 4.09791 9.41875 3.15103 10 2.794C10.5812 3.15181 11.9242 4.09869 12.6437 5.59869C11.4883 6.31374 10.5689 7.353 10 8.58697C9.43106 7.3528 8.5113 6.31348 7.35547 5.59869ZM15.625 11.4495C15.6234 12.8327 15.1129 14.167 14.1908 15.198C13.2687 16.229 11.9995 16.8847 10.625 17.0401V15.8245C10.6266 14.4413 11.1371 13.107 12.0592 12.076C12.9813 11.0449 14.2505 10.3892 15.625 10.2338V11.4495ZM15.625 8.97838C14.6312 9.06953 13.6692 9.37595 12.8058 9.87634C11.9423 10.3767 11.1982 11.0591 10.625 11.876V11.4495C10.6266 10.0663 11.1371 8.73199 12.0592 7.70096C12.9813 6.66993 14.2505 6.01424 15.625 5.85885V8.97838Z" fill="white"/>
</svg>
