<svg width="20" height="20" viewBox="0 0 20 20" fill="none" xmlns="http://www.w3.org/2000/svg">
<path d="M15.7476 4.25469C14.6113 3.11841 13.1636 2.3446 11.5875 2.03111C10.0114 1.71762 8.37773 1.87853 6.89309 2.4935C5.40845 3.10847 4.13951 4.14987 3.24674 5.48602C2.35396 6.82216 1.87744 8.39304 1.87744 10C1.87744 11.607 2.35396 13.1778 3.24674 14.514C4.13951 15.8501 5.40845 16.8915 6.89309 17.5065C8.37773 18.1215 10.0114 18.2824 11.5875 17.9689C13.1636 17.6554 14.6113 16.8816 15.7476 15.7453C16.5077 14.994 17.1112 14.0993 17.5231 13.1131C17.935 12.1269 18.1471 11.0688 18.1471 10C18.1471 8.93124 17.935 7.8731 17.5231 6.88689C17.1112 5.90068 16.5077 5.006 15.7476 4.25469ZM5.13668 5.13828C6.26165 4.01178 7.74406 3.31257 9.32886 3.16094C9.17611 4.74567 8.47384 6.22705 7.34371 7.34844C6.2208 8.47658 4.73912 9.17708 3.15465 9.32891C3.30758 7.74396 4.00851 6.26198 5.13668 5.13828ZM3.15074 10.5844C5.06986 10.4311 6.87096 9.59681 8.22886 8.23203C9.5945 6.87457 10.4294 5.07333 10.5828 3.15391C12.1985 3.28861 13.7143 3.99142 14.861 5.1376C16.0078 6.28377 16.7113 7.79918 16.8468 9.41485C14.9284 9.57194 13.128 10.405 11.7665 11.7657C10.405 13.1263 9.57076 14.9262 9.41246 16.8445C7.79672 16.7098 6.28097 16.007 5.13422 14.8608C3.98747 13.7147 3.2839 12.1993 3.1484 10.5836L3.15074 10.5844ZM14.8632 14.8617C13.738 15.9879 12.2557 16.6871 10.6711 16.8391C10.8271 15.2556 11.5276 13.7752 12.6531 12.6505C13.7786 11.5257 15.2593 10.8262 16.8429 10.6711C16.6906 12.2557 15.9905 13.7377 14.8632 14.8617Z" fill="#5C5F61"/>
</svg>
