<svg width="21" height="20" viewBox="0 0 21 20" fill="none" xmlns="http://www.w3.org/2000/svg">
<path d="M16.2476 4.25469C15.1113 3.11841 13.6636 2.3446 12.0875 2.03111C10.5114 1.71762 8.87773 1.87853 7.39309 2.4935C5.90845 3.10847 4.63951 4.14987 3.74674 5.48602C2.85396 6.82216 2.37744 8.39304 2.37744 10C2.37744 11.607 2.85396 13.1778 3.74674 14.514C4.63951 15.8501 5.90845 16.8915 7.39309 17.5065C8.87773 18.1215 10.5114 18.2824 12.0875 17.9689C13.6636 17.6554 15.1113 16.8816 16.2476 15.7453C17.0077 14.994 17.6112 14.0993 18.0231 13.1131C18.435 12.1269 18.6471 11.0688 18.6471 10C18.6471 8.93124 18.435 7.8731 18.0231 6.88689C17.6112 5.90068 17.0077 5.006 16.2476 4.25469ZM5.63668 5.13828C6.76165 4.01178 8.24406 3.31257 9.82886 3.16094C9.67611 4.74567 8.97384 6.22705 7.84371 7.34844C6.7208 8.47658 5.23912 9.17708 3.65465 9.32891C3.80758 7.74396 4.50851 6.26198 5.63668 5.13828ZM3.65074 10.5844C5.56986 10.4311 7.37096 9.59681 8.72886 8.23203C10.0945 6.87457 10.9294 5.07333 11.0828 3.15391C12.6985 3.28861 14.2143 3.99142 15.361 5.1376C16.5078 6.28377 17.2113 7.79918 17.3468 9.41485C15.4284 9.57194 13.628 10.405 12.2665 11.7657C10.905 13.1263 10.0708 14.9262 9.91246 16.8445C8.29672 16.7098 6.78097 16.007 5.63422 14.8608C4.48747 13.7147 3.7839 12.1993 3.6484 10.5836L3.65074 10.5844ZM15.3632 14.8617C14.238 15.9879 12.7557 16.6871 11.1711 16.8391C11.3271 15.2556 12.0276 13.7752 13.1531 12.6505C14.2786 11.5257 15.7593 10.8262 17.3429 10.6711C17.1906 12.2557 16.4905 13.7377 15.3632 14.8617Z" fill="white"/>
</svg>
