<svg width="141" height="30" viewBox="0 0 141 30" fill="none" xmlns="http://www.w3.org/2000/svg">
<path d="M14.8786 12.2299C10.3995 12.7325 5.94778 13.4721 1.61454 14.7099C1.58998 14.967 2.10275 14.863 2.26163 14.8515C3.64683 14.7446 5.05224 14.4731 6.4461 14.4124C9.07782 14.2997 11.711 14.4875 14.3254 14.7085L13.8011 16.1327C9.64692 16.1573 5.5549 16.9474 1.47154 17.5973L1.54087 17.8833C1.70698 17.7432 1.9092 17.7375 2.11286 17.7331C5.74411 17.645 9.45914 18.0119 13.0268 18.6099C11.6445 21.9133 9.59059 24.9278 6.95598 27.3545C6.64832 27.5076 5.29779 26.3809 5.00602 26.1238C-0.836633 20.9643 -1.79428 11.5336 3.35072 5.53927C5.58089 2.9422 8.18517 1.62777 11.6171 2.89742C15.4217 4.30429 15.79 8.82246 14.8771 12.2284L14.8786 12.2299Z" fill="#004CCE"/>
<path fill-rule="evenodd" clip-rule="evenodd" d="M9.70759 29.1428C9.70724 29.1432 9.70689 29.1435 9.70654 29.1439V29.1425C9.70689 29.1426 9.70724 29.1427 9.70759 29.1428ZM9.70759 29.1428C18.6381 32.2793 28.5764 26.4829 29.9038 17.0598C31.2745 7.32295 22.8767 -1.08217 13.1731 0.113819L15.3874 1.43691C19.5849 5.02198 18.5088 11.4295 17.1453 16.1455C15.7429 20.9925 13.2155 25.529 9.70759 29.1428ZM26.1135 12.511C27.4438 13.3486 28.3279 14.8303 28.3279 16.5182C28.3279 17.0768 28.2311 17.6128 28.0533 18.1103C27.4044 19.99 25.6195 21.3401 23.5193 21.3401C20.8709 21.3401 18.724 19.1932 18.724 16.5448C18.724 13.8963 20.8709 11.7494 23.5193 11.7494C24.4751 11.7494 25.3657 12.029 26.1135 12.511Z" fill="#004CCE"/>
<path d="M48.1271 17.8873L51.6924 17.8433C51.5751 19.0537 51.1789 20.0845 50.504 20.9354C49.8364 21.7864 48.9891 22.432 47.9621 22.8721C46.9424 23.3123 45.853 23.5214 44.6939 23.4994C43.5935 23.4774 42.6655 23.25 41.9098 22.8171C41.1616 22.377 40.571 21.7901 40.1382 21.0565C39.7127 20.3155 39.4303 19.4866 39.2909 18.5696C39.1515 17.6526 39.1442 16.7062 39.2689 15.7305L39.4009 14.8172C39.5476 13.7975 39.8191 12.8181 40.2152 11.8791C40.6114 10.9401 41.1286 10.1038 41.7668 9.3702C42.405 8.62926 43.168 8.04971 44.0556 7.63156C44.9433 7.20607 45.9447 7.00433 47.0597 7.02634C48.2482 7.04834 49.2569 7.29777 50.0858 7.77461C50.9221 8.25145 51.5677 8.91903 52.0226 9.77734C52.4847 10.6283 52.7452 11.6297 52.8038 12.7814L49.1725 12.7704C49.1945 12.1982 49.1358 11.7067 48.9964 11.2959C48.8571 10.8777 48.615 10.555 48.2702 10.3275C47.9327 10.0928 47.4595 9.96441 46.8507 9.9424C46.1831 9.9204 45.6255 10.0561 45.178 10.3496C44.7305 10.643 44.3637 11.0355 44.0776 11.527C43.7989 12.0112 43.5825 12.543 43.4284 13.1226C43.2817 13.6948 43.168 14.2523 43.0873 14.7952L42.9662 15.7415C42.9149 16.189 42.8672 16.6879 42.8232 17.2381C42.7865 17.7809 42.8122 18.3055 42.9002 18.8117C42.9956 19.3105 43.1936 19.7287 43.4944 20.0661C43.8025 20.3962 44.272 20.5723 44.9029 20.5943C45.5045 20.609 46.0254 20.5136 46.4655 20.3082C46.913 20.0955 47.2725 19.7837 47.5439 19.3729C47.8227 18.962 48.0171 18.4669 48.1271 17.8873ZM52.6942 17.5132L52.7162 17.2821C52.8116 16.4311 53.0207 15.6315 53.3435 14.8832C53.6663 14.1349 54.0954 13.4784 54.6309 12.9135C55.1665 12.3413 55.7974 11.9011 56.5236 11.593C57.2572 11.2776 58.0789 11.1308 58.9885 11.1528C59.8615 11.1675 60.6135 11.3362 61.2444 11.659C61.8826 11.9818 62.4035 12.422 62.8069 12.9795C63.2178 13.5371 63.5075 14.179 63.6763 14.9052C63.8523 15.6242 63.9037 16.3871 63.8303 17.1941L63.8083 17.4362C63.7129 18.2798 63.5002 19.0721 63.1701 19.813C62.84 20.554 62.4035 21.2069 61.8606 21.7717C61.3251 22.3293 60.6905 22.7621 59.9569 23.0702C59.2306 23.3783 58.4163 23.5214 57.514 23.4994C56.663 23.4847 55.9148 23.3196 55.2692 23.0042C54.6309 22.6814 54.1064 22.2449 53.6956 21.6947C53.2921 21.1445 53.006 20.5136 52.8373 19.802C52.6686 19.0831 52.6209 18.3201 52.6942 17.5132ZM56.2155 17.2821L56.1935 17.5132C56.1715 17.8286 56.1605 18.1698 56.1605 18.5366C56.1605 18.9034 56.2045 19.2555 56.2926 19.5929C56.3806 19.9231 56.5383 20.1945 56.7657 20.4072C56.9931 20.62 57.3159 20.7337 57.7341 20.7484C58.1889 20.763 58.5704 20.6713 58.8785 20.4733C59.1866 20.2679 59.436 19.9964 59.6268 19.659C59.8249 19.3215 59.9752 18.9584 60.0779 18.5696C60.188 18.1734 60.2613 17.792 60.298 17.4251L60.32 17.1941C60.3494 16.886 60.3641 16.5448 60.3641 16.1707C60.3641 15.7966 60.32 15.4408 60.232 15.1033C60.144 14.7658 59.9826 14.4871 59.7478 14.267C59.5204 14.0469 59.194 13.9295 58.7685 13.9149C58.3136 13.9002 57.9322 13.9992 57.624 14.212C57.3159 14.4174 57.0628 14.6925 56.8648 15.0373C56.674 15.3747 56.5273 15.7415 56.4246 16.1377C56.3219 16.5338 56.2522 16.9153 56.2155 17.2821ZM71.2585 20.2092L72.788 11.3729H76.3093L74.2406 23.2793H70.9614L71.2585 20.2092ZM71.9517 17.9533L72.8761 17.9313C72.8027 18.6136 72.6523 19.2885 72.4249 19.9561C72.2048 20.6237 71.9004 21.2289 71.5116 21.7717C71.1228 22.3146 70.6386 22.7438 70.059 23.0592C69.4795 23.3747 68.7936 23.5251 68.0013 23.5104C67.3484 23.4957 66.7982 23.371 66.3507 23.1362C65.9032 22.9015 65.5437 22.5824 65.2723 22.1789C65.0009 21.7681 64.8175 21.2986 64.7221 20.7704C64.6267 20.2422 64.6084 19.6773 64.6671 19.0758L65.9545 11.3729H69.4648L68.1553 19.1198C68.1333 19.3399 68.1333 19.5453 68.1553 19.736C68.1847 19.9267 68.2397 20.0955 68.3204 20.2422C68.4084 20.3889 68.5332 20.5063 68.6945 20.5943C68.8559 20.675 69.0613 20.7227 69.3108 20.7374C69.8756 20.7594 70.3378 20.642 70.6973 20.3852C71.0641 20.1211 71.3429 19.7763 71.5336 19.3509C71.7317 18.918 71.871 18.4522 71.9517 17.9533ZM80.8985 14.4321L79.3579 23.2793H75.8586L77.9274 11.3729H81.1846L80.8985 14.4321ZM84.7829 11.2739L84.3317 14.6191C84.1483 14.5898 83.9613 14.5641 83.7705 14.5421C83.5798 14.5201 83.389 14.5054 83.1983 14.4981C82.7875 14.4907 82.417 14.5384 82.0869 14.6411C81.7568 14.7438 81.4707 14.8979 81.2286 15.1033C80.9865 15.3087 80.7848 15.5655 80.6234 15.8736C80.4693 16.1744 80.3556 16.5265 80.2822 16.93L79.666 16.5448C79.7394 15.9873 79.8604 15.3967 80.0291 14.7732C80.1979 14.1423 80.4326 13.5481 80.7334 12.9905C81.0415 12.433 81.434 11.9818 81.9108 11.637C82.3877 11.2922 82.9746 11.1198 83.6715 11.1198C83.8622 11.1198 84.0493 11.1345 84.2327 11.1639C84.4161 11.1932 84.5995 11.2299 84.7829 11.2739ZM92.2441 11.3729L91.8039 13.8708H84.8824L85.3225 11.3729H92.2441ZM87.3363 8.41284H90.8355L88.9319 19.4829C88.9025 19.7397 88.9025 19.9524 88.9319 20.1211C88.9612 20.2899 89.0419 20.4182 89.1739 20.5063C89.306 20.5943 89.5077 20.6457 89.7792 20.6603C89.9332 20.6677 90.0873 20.664 90.2413 20.6493C90.3954 20.6273 90.5494 20.609 90.7035 20.5943L90.4614 23.2133C90.1533 23.3086 89.8379 23.3783 89.5151 23.4223C89.1923 23.4664 88.8658 23.4884 88.5357 23.4884C87.8021 23.4737 87.1895 23.3233 86.698 23.0372C86.2065 22.7438 85.8507 22.3293 85.6306 21.7938C85.4179 21.2582 85.3445 20.6237 85.4106 19.8901L87.3363 8.41284ZM97.9886 19.879C98.0473 19.5636 97.9556 19.3215 97.7135 19.1528C97.4788 18.9767 97.1963 18.8447 96.8662 18.7566C96.5361 18.6686 96.2646 18.5989 96.0519 18.5476C95.6044 18.4302 95.1606 18.2798 94.7204 18.0964C94.2803 17.9057 93.8804 17.6709 93.521 17.3921C93.1688 17.1134 92.8864 16.7759 92.6737 16.3798C92.4683 15.9763 92.3766 15.5068 92.3986 14.9712C92.4206 14.3183 92.5856 13.7535 92.8937 13.2766C93.2019 12.7925 93.6017 12.3926 94.0932 12.0772C94.592 11.7544 95.1349 11.516 95.7218 11.3619C96.3087 11.2079 96.8955 11.1382 97.4824 11.1528C98.2821 11.1602 99.034 11.3032 99.7383 11.582C100.45 11.8608 101.026 12.2863 101.466 12.8585C101.913 13.4307 102.141 14.1533 102.148 15.0263L98.6709 15.0153C98.6782 14.7218 98.6379 14.4651 98.5498 14.245C98.4691 14.0249 98.3297 13.8562 98.1317 13.7388C97.9409 13.6214 97.6842 13.5627 97.3614 13.5627C97.112 13.5627 96.8662 13.6104 96.6241 13.7058C96.3894 13.8012 96.184 13.9405 96.0079 14.1239C95.8392 14.3073 95.7328 14.5311 95.6888 14.7952C95.6448 15.0153 95.6741 15.1987 95.7768 15.3454C95.8868 15.4921 96.0299 15.6132 96.206 15.7085C96.3894 15.7966 96.5801 15.8699 96.7782 15.9286C96.9836 15.98 97.167 16.024 97.3284 16.0606C97.9886 16.222 98.6305 16.4348 99.2541 16.6989C99.8776 16.963 100.387 17.3408 100.784 17.8323C101.187 18.3165 101.374 18.9584 101.345 19.758C101.323 20.4329 101.139 21.0125 100.795 21.4966C100.457 21.9735 100.021 22.3623 99.4852 22.6631C98.957 22.9565 98.3848 23.1693 97.7685 23.3013C97.1523 23.4407 96.5544 23.5067 95.9749 23.4994C95.1752 23.4847 94.416 23.3233 93.697 23.0152C92.9854 22.6998 92.4059 22.2449 91.9584 21.6507C91.5109 21.0565 91.2762 20.3229 91.2541 19.4499L94.5003 19.4609C94.5077 19.813 94.5737 20.1101 94.6984 20.3522C94.8305 20.587 95.0175 20.7667 95.2596 20.8914C95.5017 21.0161 95.8025 21.0785 96.1619 21.0785C96.426 21.0785 96.6865 21.0418 96.9432 20.9684C97.2 20.8878 97.4201 20.7594 97.6035 20.5833C97.7942 20.3999 97.9226 20.1652 97.9886 19.879ZM110.908 10.6577L104.878 23.2793H100.861L109.367 7.25742H111.942L110.908 10.6577ZM111.975 23.2793L110.27 10.2835L110.369 7.25742H112.789L115.772 23.2793H111.975ZM112.833 17.3041L112.316 20.1982H104.261L104.779 17.3041H112.833ZM121.076 13.8488L118.644 27.857H115.145L118.006 11.3729H121.252L121.076 13.8488ZM127.623 17.117L127.59 17.3481C127.51 18.0671 127.345 18.7933 127.095 19.5269C126.853 20.2605 126.519 20.9318 126.094 21.5407C125.668 22.1495 125.144 22.6374 124.52 23.0042C123.897 23.3637 123.163 23.5324 122.319 23.5104C121.578 23.4884 120.97 23.2866 120.493 22.9052C120.023 22.5164 119.656 22.0212 119.392 21.4196C119.128 20.8181 118.945 20.1798 118.842 19.5049C118.739 18.83 118.695 18.1954 118.71 17.6012L118.754 17.2161C118.864 16.5705 119.048 15.8883 119.304 15.1693C119.568 14.4504 119.91 13.7865 120.328 13.1776C120.753 12.5614 121.259 12.0625 121.846 11.681C122.44 11.2996 123.126 11.1198 123.904 11.1418C124.718 11.1639 125.386 11.3583 125.907 11.7251C126.428 12.0845 126.824 12.5577 127.095 13.1446C127.367 13.7241 127.539 14.3624 127.612 15.0593C127.686 15.7562 127.689 16.4421 127.623 17.117ZM124.102 17.3371L124.124 17.106C124.146 16.8273 124.161 16.5118 124.168 16.1597C124.183 15.8002 124.157 15.4518 124.091 15.1143C124.032 14.7768 123.904 14.4944 123.706 14.267C123.508 14.0396 123.211 13.9185 122.815 13.9039C122.367 13.8818 121.989 13.9552 121.681 14.1239C121.373 14.2853 121.12 14.5091 120.922 14.7952C120.724 15.0813 120.566 15.4041 120.449 15.7635C120.339 16.1157 120.262 16.4825 120.218 16.8639L120.086 17.9093C120.042 18.3348 120.042 18.764 120.086 19.1968C120.13 19.6223 120.269 19.9818 120.504 20.2752C120.746 20.5686 121.131 20.7227 121.659 20.7374C122.099 20.7447 122.466 20.642 122.76 20.4293C123.06 20.2092 123.299 19.9231 123.475 19.5709C123.658 19.2188 123.798 18.8447 123.893 18.4485C123.988 18.0524 124.058 17.6819 124.102 17.3371ZM132.928 13.8488L130.496 27.857H126.997L129.858 11.3729H133.104L132.928 13.8488ZM139.475 17.117L139.442 17.3481C139.361 18.0671 139.196 18.7933 138.947 19.5269C138.705 20.2605 138.371 20.9318 137.946 21.5407C137.52 22.1495 136.996 22.6374 136.372 23.0042C135.748 23.3637 135.015 23.5324 134.171 23.5104C133.43 23.4884 132.821 23.2866 132.345 22.9052C131.875 22.5164 131.508 22.0212 131.244 21.4196C130.98 20.8181 130.797 20.1798 130.694 19.5049C130.591 18.83 130.547 18.1954 130.562 17.6012L130.606 17.2161C130.716 16.5705 130.899 15.8883 131.156 15.1693C131.42 14.4504 131.761 13.7865 132.179 13.1776C132.605 12.5614 133.111 12.0625 133.698 11.681C134.292 11.2996 134.978 11.1198 135.756 11.1418C136.57 11.1639 137.238 11.3583 137.759 11.7251C138.279 12.0845 138.676 12.5577 138.947 13.1446C139.218 13.7241 139.391 14.3624 139.464 15.0593C139.538 15.7562 139.541 16.4421 139.475 17.117ZM135.954 17.3371L135.976 17.106C135.998 16.8273 136.013 16.5118 136.02 16.1597C136.035 15.8002 136.009 15.4518 135.943 15.1143C135.884 14.7768 135.756 14.4944 135.558 14.267C135.36 14.0396 135.063 13.9185 134.666 13.9039C134.219 13.8818 133.841 13.9552 133.533 14.1239C133.225 14.2853 132.972 14.5091 132.774 14.7952C132.576 15.0813 132.418 15.4041 132.301 15.7635C132.19 16.1157 132.113 16.4825 132.069 16.8639L131.937 17.9093C131.893 18.3348 131.893 18.764 131.937 19.1968C131.981 19.6223 132.121 19.9818 132.356 20.2752C132.598 20.5686 132.983 20.7227 133.511 20.7374C133.951 20.7447 134.318 20.642 134.611 20.4293C134.912 20.2092 135.151 19.9231 135.327 19.5709C135.51 19.2188 135.649 18.8447 135.745 18.4485C135.84 18.0524 135.91 17.6819 135.954 17.3371Z" fill="#004CCE"/>
</svg>
